<svg xmlns="http://www.w3.org/2000/svg" viewBox="0 0 96 96" role="img" aria-labelledby="title desc">
  <title id="title">Datvida LLC logo</title>
  <desc id="desc">A gold Datvida letter D with a freight route line inside.</desc>
  <defs>
    <linearGradient id="mark-bg" x1="12" x2="84" y1="12" y2="84" gradientUnits="userSpaceOnUse">
      <stop stop-color="#F7C85B"/>
      <stop offset="1" stop-color="#C78312"/>
    </linearGradient>
    <linearGradient id="mark-shine" x1="22" x2="72" y1="18" y2="78" gradientUnits="userSpaceOnUse">
      <stop stop-color="#FFF0C7"/>
      <stop offset="1" stop-color="#F4B540"/>
    </linearGradient>
    <filter id="shadow" x="-20%" y="-20%" width="140%" height="140%" color-interpolation-filters="sRGB">
      <feDropShadow dx="0" dy="10" stdDeviation="10" flood-color="#000000" flood-opacity=".22"/>
    </filter>
  </defs>
  <rect width="96" height="96" rx="24" fill="#101B2D"/>
  <path
    fill="url(#mark-bg)"
    filter="url(#shadow)"
    d="M22 20h25.5C63.6 20 76 32.2 76 48S63.6 76 47.5 76H22V20Zm17 16v24h8.2C54.9 60 60 55.2 60 48s-5.1-12-12.8-12H39Z"
  />
  <path
    fill="#101B2D"
    d="M37 35h10.1C55.6 35 61 40.2 61 48s-5.4 13-13.9 13H37V35Zm11 11.7h-5v2.6h5c2.1 0 3.2-.5 3.2-1.3s-1.1-1.3-3.2-1.3Z"
  />
  <path
    fill="none"
    stroke="url(#mark-shine)"
    stroke-linecap="round"
    stroke-width="4.5"
    d="M28 65c10.6-15.2 20.8-22.7 35-26"
  />
  <circle cx="28" cy="65" r="4.2" fill="#FFF0C7"/>
  <circle cx="63" cy="39" r="4.2" fill="#FFF0C7"/>
</svg>
