<svg xmlns="http://www.w3.org/2000/svg" viewBox="0 0 1080 1080" role="img" aria-labelledby="title desc">
  <title id="title">Datvida LLC Facebook profile image</title>
  <desc id="desc">A centered gold Datvida letter D mark on a dark navy square background.</desc>
  <defs>
    <linearGradient id="profile-bg" x1="0" x2="1080" y1="0" y2="1080" gradientUnits="userSpaceOnUse">
      <stop stop-color="#08111F"/>
      <stop offset="1" stop-color="#101B2D"/>
    </linearGradient>
    <linearGradient id="mark-bg" x1="285" x2="795" y1="285" y2="795" gradientUnits="userSpaceOnUse">
      <stop stop-color="#F7C85B"/>
      <stop offset="1" stop-color="#C78312"/>
    </linearGradient>
    <linearGradient id="mark-shine" x1="356" x2="710" y1="327" y2="753" gradientUnits="userSpaceOnUse">
      <stop stop-color="#FFF0C7"/>
      <stop offset="1" stop-color="#F4B540"/>
    </linearGradient>
    <filter id="shadow" x="-20%" y="-20%" width="140%" height="140%" color-interpolation-filters="sRGB">
      <feDropShadow dx="0" dy="28" stdDeviation="32" flood-color="#000000" flood-opacity=".24"/>
    </filter>
  </defs>

  <rect width="1080" height="1080" fill="url(#profile-bg)"/>
  <rect x="200" y="200" width="680" height="680" rx="170" fill="#101B2D"/>
  <g transform="translate(200 200) scale(7.0833333333)" filter="url(#shadow)">
    <path
      fill="url(#mark-bg)"
      d="M22 20h25.5C63.6 20 76 32.2 76 48S63.6 76 47.5 76H22V20Zm17 16v24h8.2C54.9 60 60 55.2 60 48s-5.1-12-12.8-12H39Z"
    />
    <path
      fill="#101B2D"
      d="M37 35h10.1C55.6 35 61 40.2 61 48s-5.4 13-13.9 13H37V35Zm11 11.7h-5v2.6h5c2.1 0 3.2-.5 3.2-1.3s-1.1-1.3-3.2-1.3Z"
    />
    <path
      fill="none"
      stroke="url(#mark-shine)"
      stroke-linecap="round"
      stroke-width="4.5"
      d="M28 65c10.6-15.2 20.8-22.7 35-26"
    />
    <circle cx="28" cy="65" r="4.2" fill="#FFF0C7"/>
    <circle cx="63" cy="39" r="4.2" fill="#FFF0C7"/>
  </g>
</svg>
